<svg width="1200" height="675" viewBox="0 0 1200 675" fill="none" xmlns="http://www.w3.org/2000/svg">
<g clip-path="url(#clip0_321_2494)">
<rect width="1200" height="674.671" fill="#FDEBA3"/>
<g clip-path="url(#clip1_321_2494)">
<path d="M600 35.4722C519.944 35.4722 443.167 67.2743 386.559 123.882C329.951 180.491 298.149 257.267 298.149 337.323C298.149 417.379 329.951 494.157 386.559 550.765C443.167 607.373 519.944 639.175 600 639.175C680.056 639.175 756.834 607.373 813.442 550.765C870.05 494.157 901.852 417.379 901.852 337.323C901.852 257.267 870.05 180.491 813.442 123.882C756.834 67.2743 680.056 35.4722 600 35.4722Z" fill="#FFFBEE" stroke="#FFFBEE" stroke-width="0.878477"/>
</g>
<g clip-path="url(#clip2_321_2494)">
<path d="M913.71 634.238C891.547 642.876 868.284 644.839 843.485 637.451C839.639 636.31 837.207 632.486 837.494 628.461L837.748 624.91L839.542 600.023L839.664 598.286C839.945 594.395 842.741 591.161 846.521 590.332L850.344 589.503C853.776 588.752 856.422 586.002 857.069 582.529L857.31 581.228C853.663 580.652 850.728 579.992 848.849 579.416L849.92 556.611C855.439 548.691 889.635 542.603 908.104 552.011L910.509 575.664C907.463 577.306 904.156 578.6 900.704 579.61L901.644 583.005C902.247 585.159 903.639 587.001 905.535 588.165L913.774 593.186C916.283 594.706 917.858 597.395 917.974 600.345L918.04 601.981L918.887 622.961L919.003 625.8C919.153 629.452 917.092 632.919 913.71 634.238Z" fill="#97CFC0"/>
<path d="M900.337 580.407C903.764 579.383 907.048 578.07 910.071 576.402L907.671 552.366C889.326 542.797 855.374 548.965 849.898 557.009L848.847 580.182C850.714 580.769 853.628 581.441 857.249 582.029C868.183 583.803 885.595 584.81 900.337 580.407ZM875.869 571.258C875.842 571.899 875.015 571.838 874.863 571.31C874.428 569.805 874.328 568.174 874.266 566.613C874.209 565.185 874.221 563.761 874.291 562.335C874.002 562.316 873.712 562.303 873.423 562.282C869.306 561.979 865.129 561.558 861.041 560.764C860.99 561.741 860.963 562.719 860.945 563.697C860.935 564.264 860.944 564.832 860.939 565.4C860.934 565.95 861.038 566.579 860.864 567.105C860.712 567.568 860.075 567.561 859.879 567.144C859.638 566.63 859.688 565.952 859.646 565.393C859.602 564.811 859.593 564.226 859.588 563.642C859.577 562.589 859.62 561.538 859.687 560.488C858.407 560.211 857.137 559.899 855.884 559.532C855.057 559.29 855.511 558.029 856.326 558.246C859.471 559.082 862.702 559.526 865.924 559.911C876.799 561.211 888.554 562.06 898.4 556.184C898.874 555.901 899.287 556.194 899.436 556.608C899.486 556.678 899.519 556.759 899.524 556.849C899.574 557.7 899.633 558.552 899.666 559.405C899.682 559.82 899.698 560.235 899.714 560.65C899.721 560.841 899.712 561.031 899.714 561.223C899.717 561.444 899.737 561.671 899.691 561.888C899.645 562.105 899.523 562.29 899.297 562.331C899.103 562.366 898.848 562.254 898.78 562.051C898.649 561.657 898.627 561.209 898.588 560.795C898.549 560.382 898.527 559.966 898.496 559.552C898.46 559.054 898.432 558.555 898.407 558.057C896.154 559.318 893.754 560.273 891.279 560.967C891.308 562.017 891.363 563.067 891.426 564.116C891.493 565.227 891.574 566.356 891.531 567.468C891.51 568.011 890.797 567.948 890.677 567.5C890.387 566.41 890.266 565.256 890.177 564.132C890.103 563.185 890.064 562.236 890.035 561.287C885.342 562.427 880.489 562.644 875.679 562.417C875.654 563.826 875.657 565.236 875.715 566.643C875.777 568.173 875.933 569.727 875.869 571.258Z" fill="#2E7669"/>
<path d="M902.304 603.972C908.487 603.524 913.769 602.814 917.327 601.871L918.169 622.803C914.233 624.462 906.825 627.476 903.282 628.247L902.304 603.972ZM852.513 628.689C851.777 628.536 851.04 628.378 850.302 628.21L852.837 602.855C854.409 603.058 856.062 603.244 857.778 603.415C856.061 603.243 854.411 603.058 852.839 602.854C847.179 602.109 842.542 601.124 839.649 599.902L837.879 624.732C841.996 626.11 846.141 627.277 850.303 628.212C851.039 628.378 851.776 628.536 852.513 628.689ZM861.947 630.254C873.545 631.705 885.294 631.438 897.199 629.419C885.295 631.435 873.545 631.704 861.947 630.254Z" fill="#2A60A0"/>
<path d="M902.479 603.859C900.737 603.985 898.929 604.091 897.064 604.178C884.793 604.756 870.204 604.499 858.403 603.387C858.194 603.367 857.99 603.347 857.783 603.326C856.061 603.158 854.401 602.975 852.824 602.774L850.27 627.84C851.011 628.006 851.751 628.162 852.49 628.312C852.914 628.399 853.337 628.485 853.761 628.566C856.485 629.09 859.217 629.52 861.958 629.857C873.601 631.286 885.395 631.016 897.345 629.019C897.586 628.979 897.826 628.944 898.067 628.903C899.856 628.593 901.655 628.245 903.452 627.859L902.478 603.862L902.479 603.859ZM879.946 621.729C879.72 625.261 876.674 627.942 873.142 627.716C869.611 627.491 866.931 624.444 867.157 620.912C867.384 617.38 874.231 609.371 874.231 609.371C874.231 609.371 880.172 618.196 879.946 621.729ZM882.463 615.816C880.779 615.709 879.501 614.256 879.609 612.571C879.717 610.886 882.982 607.067 882.982 607.067C882.982 607.067 885.816 611.276 885.709 612.96C885.6 614.645 884.147 615.924 882.463 615.816Z" fill="#FFFBEE"/>
<path d="M852.759 602.722C847.077 601.969 842.422 600.976 839.517 599.743L839.638 597.995C839.916 594.08 842.693 590.826 846.447 589.993L850.245 589.16C853.654 588.405 856.283 585.638 856.924 582.143L857.163 580.835C868.102 582.59 885.521 583.583 900.271 579.218L901.207 582.635C901.806 584.803 903.19 586.658 905.073 587.829L913.26 592.885C915.753 594.415 917.318 597.121 917.434 600.09L917.501 601.737C913.927 602.688 908.626 603.403 902.418 603.854L902.418 603.852C900.677 603.98 898.868 604.088 897.003 604.176C884.731 604.759 870.14 604.491 858.337 603.35C858.128 603.33 857.924 603.309 857.717 603.288C855.994 603.115 854.337 602.928 852.759 602.722ZM918.465 625.707L918.348 622.85C914.396 624.524 906.96 627.562 903.403 628.34C901.606 628.734 899.807 629.088 898.018 629.402C897.777 629.445 897.537 629.48 897.297 629.521C885.346 631.556 873.55 631.824 861.906 630.359C859.164 630.015 856.431 629.574 853.706 629.039C853.283 628.956 852.859 628.868 852.436 628.779C851.696 628.625 850.956 628.465 850.216 628.298C846.038 627.355 841.877 626.177 837.743 624.787L837.492 628.36C837.208 632.41 839.624 636.259 843.445 637.409C868.085 644.851 891.194 642.882 913.209 634.197C916.568 632.871 918.614 629.382 918.465 625.707ZM867.1 621.236C866.875 624.84 869.556 627.95 873.088 628.181C876.62 628.413 879.666 625.679 879.89 622.075C880.115 618.471 874.168 609.463 874.168 609.463C874.168 609.463 867.324 617.632 867.1 621.236ZM879.549 612.731C879.442 614.45 880.721 615.933 882.405 616.043C884.09 616.153 885.542 614.85 885.65 613.131C885.757 611.412 882.92 607.116 882.92 607.116C882.92 607.116 879.656 611.012 879.549 612.731ZM875.605 561.408C880.417 561.632 885.272 561.416 889.967 560.285C889.997 561.225 890.035 562.165 890.11 563.102C890.198 564.215 890.319 565.358 890.609 566.437C890.729 566.881 891.443 566.944 891.463 566.406C891.506 565.305 891.425 564.186 891.359 563.086C891.297 562.047 891.242 561.008 891.213 559.968C893.688 559.28 896.091 558.334 898.344 557.084C898.37 557.578 898.397 558.072 898.434 558.565C898.464 558.975 898.486 559.386 898.525 559.796C898.564 560.205 898.586 560.649 898.717 561.039C898.784 561.241 899.04 561.351 899.234 561.317C899.46 561.276 899.583 561.093 899.628 560.878C899.674 560.662 899.655 560.438 899.652 560.219C899.65 560.029 899.659 559.841 899.652 559.652C899.636 559.241 899.62 558.83 899.604 558.419C899.571 557.574 899.512 556.731 899.463 555.887C899.458 555.798 899.424 555.718 899.375 555.649C899.225 555.239 898.812 554.948 898.338 555.229C888.486 561.051 876.725 560.213 865.845 558.928C862.622 558.547 859.39 558.109 856.243 557.281C855.428 557.066 854.973 558.315 855.801 558.555C857.055 558.918 858.326 559.226 859.606 559.501C859.538 560.541 859.495 561.582 859.505 562.624C859.511 563.202 859.52 563.781 859.563 564.358C859.605 564.911 859.555 565.583 859.796 566.092C859.992 566.505 860.629 566.511 860.782 566.054C860.956 565.532 860.852 564.909 860.858 564.364C860.863 563.803 860.854 563.24 860.864 562.678C860.881 561.71 860.909 560.741 860.96 559.774C865.05 560.559 869.229 560.975 873.348 561.274C873.637 561.294 873.927 561.308 874.216 561.326C874.146 562.738 874.134 564.149 874.19 565.563C874.252 567.108 874.352 568.725 874.786 570.214C874.938 570.736 875.766 570.798 875.793 570.163C875.858 568.646 875.702 567.109 875.639 565.592C875.582 564.2 875.579 562.802 875.605 561.408Z" fill="#97CFC0"/>
</g>
<g clip-path="url(#clip3_321_2494)">
<path d="M329.98 120.285C304.418 129.409 277.485 131.221 248.638 122.79C244.164 121.487 241.291 117.272 241.567 112.877L241.81 108.999L243.534 81.8205L243.65 79.924C243.92 75.6749 247.114 72.1801 251.483 71.328L255.902 70.4765C259.868 69.7046 262.897 66.737 263.596 62.9495L263.857 61.5317C259.621 60.8493 256.211 60.086 254.025 59.4292L254.94 34.5164C261.223 25.9389 300.767 19.7748 322.307 30.3232L325.432 56.2122C321.926 57.9632 318.111 59.3307 314.125 60.3848L315.264 64.1092C315.993 66.4726 317.633 68.5066 319.846 69.8057L329.467 75.4126C332.396 77.1098 334.26 80.0713 334.437 83.2978L334.537 85.0877L335.819 108.032L335.994 111.137C336.219 115.131 333.881 118.892 329.98 120.285Z" fill="#97CFC0"/>
<path d="M316.071 64.4246C319.699 63.1892 323.183 61.6307 326.402 59.6804L324.448 32.688C305.384 22.3656 269.534 30.1354 263.585 39.3225L261.93 65.4279C263.879 66.043 266.927 66.7277 270.722 67.3007C282.178 69.0313 300.464 69.74 316.071 64.4246ZM290.558 54.7254C290.514 55.4472 289.646 55.3981 289.498 54.8078C289.077 53.1255 289.011 51.2914 288.982 49.5364C288.956 47.9311 289.003 46.3273 289.11 44.7209C288.806 44.7073 288.502 44.6989 288.199 44.6822C283.876 44.4425 279.493 44.0704 275.213 43.2768C275.137 44.3774 275.085 45.478 275.044 46.5797C275.019 47.2185 275.016 47.8573 274.997 48.496C274.978 49.1155 275.072 49.8209 274.877 50.4176C274.706 50.9413 274.036 50.9494 273.84 50.485C273.598 49.9127 273.667 49.1482 273.636 48.5197C273.604 47.8656 273.609 47.2076 273.617 46.5509C273.631 45.3664 273.701 44.1826 273.796 42.9989C272.457 42.718 271.128 42.3986 269.819 42.0159C268.955 41.763 269.463 40.3326 270.315 40.5571C273.602 41.4221 276.99 41.842 280.368 42.1973C291.774 43.3953 304.115 44.0643 314.608 37.2105C315.114 36.8803 315.541 37.2003 315.688 37.6627C315.739 37.7405 315.772 37.8307 315.775 37.9312C315.807 38.8887 315.849 39.846 315.863 40.8051C315.87 41.272 315.878 41.7382 315.885 42.2051C315.888 42.4201 315.873 42.6342 315.871 42.8492C315.869 43.0987 315.884 43.3529 315.831 43.599C315.778 43.8439 315.645 44.055 315.406 44.1069C315.202 44.1509 314.935 44.0316 314.869 43.8041C314.741 43.364 314.728 42.8604 314.697 42.396C314.666 41.9316 314.652 41.4643 314.63 40.999C314.604 40.4397 314.586 39.8789 314.571 39.318C312.173 40.7928 309.625 41.9263 307.007 42.7673C307.013 43.9487 307.046 45.1283 307.087 46.3076C307.13 47.5563 307.19 48.8256 307.118 50.0781C307.083 50.6897 306.334 50.6359 306.219 50.134C305.94 48.9148 305.84 47.6185 305.773 46.3556C305.717 45.2925 305.699 44.2253 305.691 43.1578C300.729 44.5555 295.62 44.9183 290.568 44.7802C290.507 46.3659 290.478 47.9528 290.505 49.5353C290.534 51.2557 290.662 53 290.558 54.7254Z" fill="#2E7669"/>
<path d="M319.423 86.3178C325.869 85.6317 331.383 84.6709 335.111 83.4897L335.413 107.485C331.272 109.499 323.482 113.162 319.774 114.146L319.423 86.3178ZM266.941 116.062C266.179 115.907 265.416 115.747 264.654 115.575L267.987 86.4097C269.616 86.5997 271.332 86.7671 273.112 86.9156C271.331 86.7653 269.619 86.599 267.989 86.409C262.121 85.7106 257.323 84.71 254.347 83.3876L251.823 111.928C256.07 113.396 260.35 114.62 264.654 115.576C265.416 115.747 266.178 115.908 266.941 116.062ZM276.713 117.597C288.74 118.94 300.972 118.306 313.413 115.66C300.973 118.304 288.74 118.938 276.713 117.597Z" fill="#D66364"/>
<path d="M318.812 86.0506C316.988 86.2089 315.094 86.3467 313.141 86.4635C300.292 87.238 285.026 87.1201 272.688 86.0288C272.47 86.0094 272.256 85.9887 272.04 85.9687C270.24 85.8028 268.505 85.6198 266.856 85.4166L263.899 113.043C264.672 113.217 265.445 113.379 266.217 113.537C266.66 113.627 267.102 113.718 267.544 113.803C270.389 114.348 273.244 114.791 276.109 115.131C288.277 116.573 300.624 116.143 313.154 113.809C313.406 113.762 313.658 113.721 313.91 113.672C315.786 113.312 317.673 112.908 319.558 112.463L318.811 86.0536L318.812 86.0506ZM295.027 105.979C294.75 109.87 291.531 112.857 287.838 112.648C284.145 112.44 281.374 109.116 281.652 105.224C281.929 101.332 289.185 92.4381 289.185 92.4381C289.185 92.4381 295.303 102.087 295.027 105.979ZM297.728 99.441C295.967 99.3417 294.646 97.7563 294.778 95.9007C294.91 94.0444 298.371 89.8027 298.371 89.8027C298.371 89.8027 301.289 94.4046 301.157 96.2603C301.025 98.1166 299.49 99.5403 297.728 99.441Z" fill="#FFFBEE"/>
<path d="M260.484 85.8841C253.925 84.9994 248.546 83.869 245.182 82.5024L245.299 80.621C245.57 76.4061 248.729 72.9367 253.046 72.0877L257.414 71.2391C261.333 70.47 264.328 67.5238 265.022 63.7663L265.281 62.3597C277.913 64.3924 298.005 65.6881 314.952 61.1771L316.074 64.8705C316.792 67.2142 318.411 69.2303 320.597 70.5169L330.098 76.0701C332.99 77.751 334.829 80.687 335.001 83.8872L335.099 85.6625C330.992 86.6407 324.89 87.3423 317.74 87.7482L317.74 87.7458C315.734 87.8608 313.651 87.9537 311.502 88.0241C297.364 88.4938 280.541 88.0151 266.922 86.6334C266.681 86.6088 266.445 86.5832 266.206 86.5582C264.218 86.3492 262.306 86.1261 260.484 85.8841ZM336.515 111.501L336.345 108.421C331.811 110.173 323.278 113.35 319.188 114.142C317.121 114.543 315.052 114.901 312.993 115.217C312.717 115.259 312.44 115.294 312.164 115.335C298.414 117.372 284.821 117.508 271.38 115.779C268.215 115.373 265.059 114.863 261.912 114.25C261.423 114.156 260.933 114.055 260.443 113.954C259.588 113.778 258.734 113.597 257.879 113.406C253.051 112.337 248.239 111.014 243.456 109.462L243.212 113.309C242.936 117.668 245.771 121.847 250.19 123.135C278.687 131.473 305.3 129.652 330.566 120.579C334.42 119.194 336.735 115.462 336.515 111.501ZM277.25 106.017C277.037 109.897 280.168 113.282 284.242 113.578C288.316 113.873 291.792 110.967 292.005 107.087C292.218 103.207 285.248 93.4245 285.248 93.4245C285.248 93.4245 277.463 102.137 277.25 106.017ZM291.493 97.0151C291.391 98.8658 292.884 100.48 294.827 100.621C296.77 100.761 298.428 99.3759 298.53 97.5251C298.631 95.6743 295.307 91.0097 295.307 91.0097C295.307 91.0097 291.594 95.1649 291.493 97.0151ZM286.292 41.6681C291.841 41.9719 297.435 41.8021 302.833 40.6446C302.879 41.6577 302.935 42.6715 303.033 43.6816C303.149 44.882 303.303 46.1153 303.651 47.2817C303.795 47.7619 304.618 47.8384 304.635 47.2592C304.671 46.0733 304.563 44.8664 304.473 43.6808C304.388 42.5604 304.311 41.4407 304.265 40.319C307.109 39.6104 309.867 38.6219 312.448 37.3044C312.484 37.837 312.522 38.3697 312.57 38.9013C312.61 39.3434 312.641 39.7874 312.691 40.229C312.741 40.6707 312.772 41.149 312.928 41.5708C313.009 41.789 313.305 41.9113 313.528 41.8765C313.788 41.836 313.927 41.6397 313.976 41.4092C314.027 41.1774 314.002 40.9358 313.995 40.6992C313.99 40.4951 313.999 40.2925 313.988 40.0884C313.964 39.6452 313.941 39.2026 313.917 38.7594C313.868 37.8488 313.789 36.9391 313.722 36.0296C313.715 35.9335 313.675 35.8474 313.618 35.7719C313.44 35.3281 312.961 35.01 312.417 35.306C301.135 41.451 287.568 40.3951 275.01 38.8695C271.29 38.4178 267.558 37.9033 263.921 36.9704C262.979 36.7289 262.471 38.0681 263.427 38.3375C264.877 38.7453 266.346 39.0936 267.825 39.4059C267.761 40.5258 267.724 41.6465 267.749 42.7698C267.763 43.3927 267.781 44.0168 267.838 44.6384C267.893 45.2353 267.844 45.9588 268.128 46.5101C268.36 46.9576 269.095 46.9726 269.264 46.4816C269.458 45.9215 269.331 45.249 269.33 44.6624C269.329 44.0572 269.312 43.4511 269.316 42.8459C269.324 41.8027 269.343 40.7595 269.39 39.7179C274.114 40.6169 278.936 41.1194 283.689 41.4943C284.022 41.5205 284.356 41.5388 284.69 41.562C284.627 43.0825 284.631 44.6026 284.714 46.1267C284.805 47.7926 284.94 49.5351 285.46 51.1457C285.642 51.7103 286.597 51.7871 286.62 51.1037C286.675 49.4702 286.476 47.8114 286.384 46.1769C286.301 44.6757 286.28 43.1705 286.292 41.6681Z" fill="#97CFC0"/>
</g>
<g clip-path="url(#clip4_321_2494)">
<path d="M1049.28 606.268C1031.37 628.074 925.041 618.653 908.234 599.32C883.97 571.41 881.374 437.808 895.089 418.891C899.137 413.307 911.339 408.866 927.135 406.211L924.896 383.862C924.714 382.041 926.129 380.593 928.045 380.638L945.612 381.055C945.677 363.484 947.034 345.349 955.669 324.039C957.055 320.617 961.366 320.717 963.269 324.197C968.17 333.161 975.839 351.229 980.213 381.876L996.75 382.268C998.635 382.313 1000.3 383.792 1000.48 385.582L1002.67 407.469C1019.18 411.066 1033 417.241 1039.86 426.612C1049.46 440.418 1072.42 578.119 1049.28 606.268Z" fill="#FFFBEE"/>
<path d="M986.761 494.745C966.806 494.637 954.832 490.359 947.722 484.765C945.301 501.037 944.646 527.221 946.807 547.214L1029.44 546.328C1030.75 525.61 1028.6 498.853 1026.1 483.361C1019.53 489.862 1007.69 494.858 986.761 494.745ZM1024.32 521.672C1023.97 522.534 1022.92 523.188 1021.98 522.776C1020.65 522.194 1020.32 520.729 1019.12 519.923C1018.3 519.372 1017.26 519.037 1016.27 519.071C1013.69 519.16 1012.38 521.907 1010.92 523.623C1009.16 525.699 1006.86 527.222 1003.98 526.842C1000.77 526.418 998.307 524.053 996.231 521.758C994.576 519.928 992.453 517.354 989.682 517.998C986.946 518.634 985.02 521.25 983.095 523.081C980.902 525.166 978.13 527.087 974.952 527.009C972.211 526.941 970.002 525.277 968.206 523.344C966.842 521.875 965.32 519.489 963.175 519.147C960.884 518.781 958.518 521.13 958.795 523.38C959.034 525.307 956.099 525.883 955.808 523.938C955.322 520.695 957.233 517.507 960.221 516.209C963.439 514.813 966.547 516.114 968.968 518.387C970.558 519.878 972.147 522.421 974.428 522.884C977.532 523.513 980.218 520.112 982.12 518.216C984.408 515.936 987.144 513.844 990.532 513.789C993.963 513.734 996.64 516.15 998.821 518.524C1000.46 520.306 1003.25 523.911 1006.06 522.506C1007.17 521.948 1007.93 520.798 1008.66 519.839C1009.47 518.787 1010.29 517.704 1011.31 516.849C1013.5 515.012 1016.41 514.582 1019.13 515.453C1021.31 516.149 1025.41 518.939 1024.32 521.672Z" fill="#97CFC0"/>
<path d="M989.591 397.764L957.525 397.707C957.953 381.035 959.59 363.802 968.04 343.404C969.397 340.128 973.392 340.133 975.084 343.396C979.442 351.799 986.176 368.78 989.591 397.764ZM944.306 576.971C954.109 589.46 1017.48 593.97 1028.42 579.285C1032.48 573.848 1034.38 562.508 1034.89 548.901L935.439 547.265C937.306 560.683 940.217 571.756 944.306 576.971Z" fill="#2E7669"/>
<path d="M1045.27 437.756C1039.33 429.102 1026.91 423.715 1011.96 420.865L1010.7 400.182C1010.6 398.489 1009.13 397.144 1007.41 397.166L992.316 397.356L960.74 397.753L944.711 397.954C942.962 397.977 941.621 399.399 941.725 401.12L943.01 422.239C928.492 425.294 917.197 429.921 913.31 435.354C900.141 453.762 897.967 580.383 919.179 606.026C933.874 623.79 1030.66 629.109 1047.77 607.82C1069.85 580.335 1053.57 450.521 1045.27 437.756ZM1026.22 459.947C1027.31 461.742 1028.6 466.872 1029.87 474.066C1033.07 492.221 1036.03 523.543 1034.78 547.75C1034.09 561.355 1032.05 572.714 1027.98 578.205C1016.99 593.036 954.661 589.425 945.184 577.084C941.232 571.929 938.522 560.906 936.873 547.524C934.007 524.112 934.385 493.502 937.004 474.512C938.077 466.817 939.505 461.024 941.237 458.4C949.707 445.588 1012.92 439.11 1026.22 459.947ZM957.029 416.682C957.114 415.529 957.168 414.148 957.752 413.14C957.989 412.732 958.595 412.895 958.794 413.257C959.398 414.352 959.398 415.877 959.46 417.079C959.527 418.391 959.616 419.691 959.609 421.007C959.597 422.95 959.586 424.894 959.574 426.838C960.949 426.937 962.323 427.028 963.69 427.114C967.828 427.372 971.971 427.443 976.104 427.347C976.034 425.796 975.953 424.242 975.944 422.694C975.941 422.217 975.93 421.725 975.961 421.251C975.979 420.969 976.081 420.75 976.145 420.489C976.195 420.287 976.168 420.033 976.179 419.826C976.227 418.898 976.194 417.855 976.554 416.993C976.794 416.417 977.638 416.326 977.952 416.941C978.402 417.826 978.46 418.874 978.595 419.831C978.623 420.038 978.624 420.272 978.679 420.474C978.753 420.741 978.884 420.948 978.93 421.233C979.011 421.734 979.036 422.255 979.079 422.759C979.206 424.248 979.265 425.741 979.328 427.233C986.911 426.875 994.437 425.863 1001.81 424.273C1001.71 422.753 1001.61 421.233 1001.56 419.712C1001.54 419.23 1001.47 418.713 1001.52 418.236C1001.56 417.816 1001.62 417.416 1001.63 416.988C1001.65 415.994 1001.5 414.871 1002.05 414.011C1002.39 413.483 1003.23 413.527 1003.62 413.998C1004.25 414.772 1004.27 415.891 1004.43 416.826C1004.51 417.303 1004.63 417.706 1004.75 418.172C1004.85 418.614 1004.87 419.09 1004.92 419.539C1005.06 420.855 1005.17 422.172 1005.28 423.489C1008.27 422.837 1009.29 427.577 1006.26 428.235C997.031 430.242 987.59 431.307 978.074 431.462C973.32 431.54 968.555 431.373 963.801 430.963C959.005 430.55 954.336 429.667 949.595 428.795C947.652 428.437 947.757 425.441 949.74 425.766C952.095 426.15 954.476 426.417 956.861 426.626C956.86 424.659 956.858 422.694 956.857 420.727C956.852 419.369 956.93 418.03 957.029 416.682ZM1028.34 518.84C1027.94 519.841 1026.71 520.59 1025.59 520.095C1024.01 519.393 1023.59 517.675 1022.15 516.714C1021.17 516.058 1019.94 515.651 1018.77 515.675C1015.71 515.74 1014.2 518.933 1012.5 520.916C1010.44 523.318 1007.74 525.063 1004.32 524.575C1000.51 524.03 997.554 521.227 995.058 518.511C993.069 516.345 990.513 513.304 987.24 514.014C984.007 514.716 981.764 517.746 979.51 519.858C976.944 522.262 973.687 524.466 969.921 524.326C966.671 524.206 964.027 522.226 961.87 519.937C960.231 518.199 958.391 515.385 955.843 514.953C953.122 514.491 950.354 517.201 950.718 519.837C951.03 522.093 947.561 522.722 947.186 520.444C946.56 516.644 948.776 512.944 952.298 511.473C956.091 509.889 959.793 511.458 962.697 514.153C964.604 515.921 966.526 518.919 969.237 519.494C972.924 520.278 976.056 516.342 978.281 514.154C980.957 511.523 984.169 509.118 988.183 509.106C992.248 509.093 995.458 511.959 998.078 514.769C1000.04 516.878 1003.41 521.136 1006.72 519.536C1008.03 518.901 1008.91 517.567 1009.76 516.458C1010.7 515.239 1011.66 513.986 1012.85 513.001C1015.42 510.886 1018.86 510.428 1022.1 511.487C1024.69 512.335 1029.6 515.66 1028.34 518.84Z" fill="#FFFBEE"/>
<path d="M1027.87 470.719C1028.96 472.574 1030.19 477.913 1031.34 485.41C1023.31 493.406 1008.89 499.6 983.468 499.616C959.227 499.631 944.711 494.489 936.114 487.703C937.366 479.636 938.944 473.551 940.771 470.772C949.708 457.209 1014.65 449.192 1027.87 470.719ZM957.412 437.241C954.969 437.07 952.532 436.839 950.127 436.482C948.101 436.181 947.933 439.316 949.919 439.652C954.763 440.47 959.532 441.301 964.442 441.64C969.309 441.975 974.191 442.055 979.067 441.881C988.828 441.531 998.529 440.232 1008.03 437.952C1011.15 437.203 1010.2 432.268 1007.12 433.008C1007.03 431.634 1006.95 430.259 1006.82 428.886C1006.78 428.417 1006.78 427.92 1006.68 427.459C1006.57 426.975 1006.45 426.556 1006.38 426.058C1006.24 425.085 1006.24 423.915 1005.6 423.118C1005.21 422.632 1004.35 422.603 1004 423.162C1003.42 424.072 1003.54 425.243 1003.5 426.282C1003.49 426.732 1003.42 427.15 1003.37 427.59C1003.3 428.09 1003.36 428.629 1003.37 429.133C1003.4 430.722 1003.48 432.309 1003.55 433.897C995.956 435.703 988.218 436.91 980.436 437.434C980.4 435.875 980.37 434.314 980.269 432.761C980.235 432.235 980.218 431.692 980.146 431.168C980.105 430.871 979.974 430.657 979.904 430.379C979.851 430.17 979.855 429.925 979.83 429.709C979.712 428.71 979.672 427.616 979.227 426.7C978.919 426.064 978.051 426.175 977.793 426.782C977.407 427.689 977.421 428.779 977.353 429.751C977.338 429.968 977.36 430.233 977.305 430.445C977.234 430.719 977.125 430.95 977.101 431.246C977.061 431.742 977.062 432.255 977.055 432.754C977.034 434.372 977.087 435.996 977.128 437.617C972.889 437.8 968.641 437.806 964.404 437.617C963.004 437.554 961.597 437.486 960.189 437.41C960.24 435.377 960.289 433.345 960.339 431.311C960.373 429.935 960.307 428.578 960.264 427.208C960.224 425.952 960.254 424.357 959.657 423.224C959.459 422.849 958.841 422.691 958.59 423.122C957.971 424.188 957.89 425.632 957.779 426.841C957.651 428.252 957.545 429.653 957.519 431.073C957.486 433.13 957.449 435.185 957.412 437.241Z" fill="#D66364"/>
</g>
<g clip-path="url(#clip5_321_2494)">
<path d="M1222.01 271.454L1211.25 267.178L1219.06 247.652L1073.02 194.117L1066.77 209.762L1049.12 202.747C1045.51 201.312 1041.42 203.069 1039.98 206.669C1038.54 210.27 1040.3 214.352 1043.91 215.787L1048.94 217.785L1038.69 242.726C1037.62 245.33 1037.64 248.19 1038.74 250.78C1039.84 253.37 1041.89 255.37 1044.52 256.412L1108.35 281.779L1103.09 293.895L1097.68 292.193L1060.38 375.023C1055.9 384.98 1060.64 396.656 1070.81 400.696L1076.58 402.991C1086.75 407.031 1098.24 401.807 1101.86 391.505L1131.47 302.804L1127.45 301.542L1131.34 290.915L1195.24 316.309C1200.62 318.444 1206.73 315.822 1208.87 310.462L1219.05 284.978C1221.98 285.127 1224.8 283.436 1225.95 280.572C1227.39 276.971 1225.62 272.889 1222.01 271.454ZM1202.99 308.125C1202.14 310.251 1199.72 311.291 1197.58 310.444L1133.51 284.982L1135.88 278.516L1113.61 269.666L1110.87 275.982L1046.86 250.546C1045.82 250.133 1045.01 249.34 1044.57 248.313C1044.13 247.286 1044.12 246.152 1044.55 245.12L1054.82 220.123L1061.56 222.802L1056.14 236.377L1200.62 293.793L1206.04 280.218L1213.03 282.994L1202.99 308.125Z" fill="#D66364"/>
<path d="M1225.7 280.623C1224.56 283.489 1221.74 285.18 1218.82 285.032L1208.65 310.531C1206.51 315.895 1200.4 318.519 1195.04 316.381L1131.22 290.973L1133.39 285.036L1197.38 310.513C1199.5 311.36 1201.93 310.32 1202.77 308.193L1212.8 283.047L1205.83 280.269L1211.03 267.221L1221.78 271.5C1225.38 272.934 1227.14 277.019 1225.7 280.623ZM1046.85 250.578C1045.81 250.165 1045 249.371 1044.56 248.344C1044.12 247.316 1044.12 246.182 1044.54 245.149L1054.8 220.137L1061.53 222.818L1066.73 209.77L1049.1 202.751C1045.5 201.315 1041.41 203.072 1039.97 206.675C1038.54 210.277 1040.3 214.362 1043.9 215.798L1048.92 217.797L1038.69 242.754C1037.62 245.359 1037.64 248.22 1038.74 250.812C1039.84 253.404 1041.89 255.405 1044.51 256.448L1108.26 281.83L1110.77 276.03L1046.85 250.578Z" fill="#FFFBEE"/>
<path d="M1061.56 222.758L1066.77 209.738L1073.02 194.117L1219.06 247.569L1211.25 267.065L1206.04 280.084L1200.62 293.638L1056.14 236.312L1061.56 222.758Z" fill="#97CFC0"/>
<path d="M1133.41 285.04L1131.25 290.977L1127.37 301.61L1103.09 293.957L1108.33 281.835L1110.84 276.035L1113.57 269.715L1135.77 278.57L1133.41 285.04Z" fill="#19365D"/>
<path d="M1103.09 293.951L1127.45 301.574L1131.47 302.833L1101.86 391.25C1098.24 401.52 1086.75 406.727 1076.58 402.7L1070.81 400.413C1060.64 396.385 1055.9 384.747 1060.38 374.821L1097.67 292.254L1103.09 293.951Z" fill="#D66364"/>
</g>
<g clip-path="url(#clip6_321_2494)">
<path d="M300.623 343.679C278.476 330.471 234.702 381.122 218.32 399.028C226.829 383.031 260.78 343.676 229.36 315.121C201.758 290.04 168.291 315.579 170.304 354.309C172.036 387.635 188.349 388.057 186.848 408.89C185.975 413.518 183.238 419.887 181.682 426.459L107.013 540.755C106.379 541.727 107.55 542.894 108.393 542.129L176.533 480.406L176.133 483.001L174.729 492.129L163.51 564.845C163.335 566 164.903 566.421 165.364 565.351L207.51 466.174L215.513 447.34L217.41 442.864L217.479 442.703C240.82 418.321 247.649 440.138 281.947 416.813C317.179 392.852 324.928 358.168 300.623 343.679ZM202.447 374.282C190.241 371.502 182.852 357.137 185.932 342.198C189.016 327.25 201.401 317.39 213.608 320.17C225.805 322.949 233.204 337.316 230.12 352.264C227.039 367.203 214.643 377.061 202.447 374.282ZM266.137 408.853C243.219 415.202 227.365 407.868 240.371 394.409C241.159 393.595 278.838 350.066 293.536 360.223C308.225 370.371 289.057 402.497 266.137 408.853Z" fill="#FFFBEE"/>
<path d="M213.876 439.162C214.519 438.435 215.145 437.75 215.763 437.092L215.696 437.254L213.849 441.707L206.058 460.45L165.03 559.143C164.581 560.21 163.049 559.788 163.219 558.638L174.08 486.25L175.44 477.163L175.828 474.58L211.116 441.995C211.337 441.791 211.441 441.498 211.436 441.205C212.25 440.577 213.063 439.909 213.876 439.162Z" fill="#2E7669"/>
<path d="M300.341 348.006C277.226 334.817 231.324 385.758 214.149 403.769C223.089 387.695 258.691 348.115 225.926 319.554C197.142 294.468 162.086 320.186 164.081 359.038C165.798 392.469 182.85 392.847 181.221 413.753C180.296 418.399 177.417 424.796 175.772 431.395C173.856 439.086 173.625 447.047 180.163 452.819C180.205 452.856 180.248 452.885 180.289 452.921C186.6 458.745 197.407 459.873 208.498 451.754C209.37 451.114 210.245 450.437 211.118 449.682C211.809 448.946 212.483 448.253 213.146 447.588C237.615 423.06 244.692 444.93 280.612 421.431C317.509 397.295 325.708 362.474 300.341 348.006ZM197.692 447.736C191.388 448.879 185.349 444.708 184.205 438.424C183.06 432.139 187.244 426.117 193.548 424.974C199.852 423.831 205.891 428.002 207.035 434.287C208.18 440.572 203.996 446.593 197.692 447.736ZM180.453 346.843C183.718 331.837 196.693 321.909 209.446 324.665C222.188 327.418 229.881 341.812 226.616 356.818C223.354 371.815 210.368 381.74 197.626 378.987C184.874 376.232 177.19 361.84 180.453 346.843ZM264.108 413.492C240.132 419.927 223.579 412.613 237.212 399.073C238.038 398.255 277.55 354.475 292.885 364.625C308.212 374.764 288.085 407.05 264.108 413.492Z" fill="#D66364"/>
<path d="M212.536 442.244L176.893 476.471L109.762 540.931C108.932 541.73 107.769 540.501 108.392 539.484L181.768 419.913C180.006 427.94 179.841 436.261 186.063 442.338C186.104 442.377 186.144 442.408 186.184 442.446C192.192 448.576 202.422 449.826 212.859 441.413C212.866 441.72 212.761 442.028 212.536 442.244ZM211.359 423.143C210.235 416.565 204.496 412.166 198.539 413.318C192.583 414.471 188.666 420.737 189.791 427.316C190.915 433.895 196.654 438.293 202.611 437.141C208.566 435.988 212.484 429.722 211.359 423.143Z" fill="#FFFBEE"/>
</g>
<path d="M890.736 266.673C890.736 266.673 890.632 282.093 893.289 286.277C894.116 287.625 895.772 289.768 898.049 291.497C902.43 298.135 912.848 301.973 930.889 302.181C946.826 302.388 961.521 291.981 962.798 289.215C965.316 286.588 966.903 283.58 967.351 280.987C968.8 272.585 969.49 261.418 969.49 261.418C969.49 261.418 965.799 276.769 936.236 278.912C906.673 281.056 893.392 271.894 890.736 266.673ZM890.736 266.673C890.736 266.673 890.632 282.093 893.289 286.277C894.116 287.625 895.772 289.768 898.049 291.497C902.43 298.135 912.848 301.973 930.889 302.181C946.826 302.388 961.521 291.981 962.798 289.215C965.316 286.588 966.903 283.58 967.351 280.987C968.8 272.585 969.49 261.418 969.49 261.418C969.49 261.418 965.799 276.769 936.236 278.912C906.673 281.056 893.392 271.894 890.736 266.673Z" fill="#97CFC0"/>
<path d="M962.526 289.211C956.895 293.913 945.566 298.995 929.91 298.822C912.298 298.614 903.063 295.157 898.084 291.493V327.62C898.084 327.62 900.282 342.175 933.206 340.896C966.13 339.617 962.388 324.301 962.388 324.301L962.526 289.211ZM962.526 289.211C956.895 293.913 945.566 298.995 929.91 298.822C912.298 298.614 903.063 295.157 898.084 291.493V327.62C898.084 327.62 900.282 342.175 933.206 340.896C966.13 339.617 962.388 324.301 962.388 324.301L962.526 289.211Z" fill="#D66364"/>
<path d="M969.74 259.336C968.284 248.846 956.047 244.326 944.746 242.773C940.863 242.221 928.626 241.428 916.978 242.842C894.965 245.775 889.175 258.508 890.77 266.927C891.394 270.205 893.821 272.931 897.391 275.104C897.149 278.9 896.733 283.627 897.911 291.287C898.882 285.042 898.397 279.797 897.877 275.38C900.754 277.071 904.359 278.417 908.311 279.487C907.861 283.351 907.098 287.871 908.103 295.807C909.941 289.665 909.213 283.938 908.762 279.625C912.298 280.556 916.146 281.212 920.029 281.66C919.578 285.49 918.746 289.389 919.335 298.016C920.445 291.874 921.277 286.318 920.861 281.764C924.639 282.178 928.487 282.35 932.127 282.316C931.746 286.629 931.122 291.287 931.85 298.74C932.751 293.427 933.202 287.147 932.855 282.316C934.346 282.281 935.802 282.247 937.189 282.143C939.511 282.005 941.799 281.729 944.018 281.35C943.775 285.456 943.498 288.941 944.434 297.326C945.439 289.286 944.919 285.456 944.538 281.246C948.178 280.591 951.644 279.625 954.764 278.382C954.452 283.213 954.383 288.492 955.007 293.944C955.735 287.802 955.631 282.523 955.215 278.21C958.196 276.968 960.9 275.484 963.119 273.759C962.842 278.658 963.119 281.591 963.327 288.906C965.06 278.658 964.298 276.692 963.778 273.241C968.111 269.515 970.503 264.856 969.74 259.336ZM898.085 301.88C898.085 301.88 929.146 318.857 963.119 301.259C963.05 315.337 963.05 319.271 963.05 319.271C963.05 319.271 931.087 340.698 898.119 319.961C898.085 306.676 898.085 301.88 898.085 301.88Z" fill="#2E7669"/>
<path d="M960.866 259.216C960.866 263.061 956.844 267.995 940.17 268.914C923.495 269.799 901.309 267.859 901.274 261.326C901.239 252.342 918.711 251.9 932.994 251.798C948.663 251.73 960.866 254.69 960.866 259.216ZM960.866 259.216C960.866 263.061 956.844 267.995 940.17 268.914C923.495 269.799 901.309 267.859 901.274 261.326C901.239 252.342 918.711 251.9 932.994 251.798C948.663 251.73 960.866 254.69 960.866 259.216Z" fill="#FFFBEE"/>
<g clip-path="url(#clip7_321_2494)">
<path d="M208.283 180.865L242.143 182.796L247.452 178.25L247.865 170.926L228.315 149.926L214.909 154.649L218.459 164.15L205.919 165.85L208.283 180.865ZM208.283 180.865L242.143 182.796L247.452 178.25L247.865 170.926L228.315 149.926L214.909 154.649L218.459 164.15L205.919 165.85L208.283 180.865Z" fill="#FFFBEE"/>
<path d="M220.516 181.419C217.517 179.856 -70.5756 66.9153 -70.5756 66.9153C-70.5756 66.9153 -78.1352 45.7176 -56.0385 33.0274C-23.3111 43.7463 240.501 151.815 240.501 151.815L227.189 156.376L230.672 165.427L218.23 167.1L220.516 181.419ZM220.516 181.419C217.517 179.856 -70.5756 66.9153 -70.5756 66.9153C-70.5756 66.9153 -78.1352 45.7176 -56.0385 33.0274C-23.3111 43.7463 240.501 151.815 240.501 151.815L227.189 156.376L230.672 165.427L218.23 167.1L220.516 181.419Z" fill="#97CFC0"/>
<path d="M255.356 181.108C254.267 172.911 261.113 169.856 261.113 169.856L272.934 181.96C272.934 181.96 265.19 181.668 255.356 181.108ZM219.395 165.28C218.295 158.51 71.7906 107.137 -69.7239 52.2981C-68.528 48.5772 -66.5614 45.2782 -64.368 42.6196C-18.9847 61.5804 228.4 154.714 228.4 154.714C216.704 145.82 -19.1875 58.2994 -62.8805 40.8946C-58.417 35.648 -54.0582 33.3995 -54.0582 33.3995C-54.0582 33.3995 -56.9138 32.2101 -60.3882 30.8832C-81.6513 43.3346 -75.4896 64.4775 -75.4896 64.4775L-69.6993 66.7128C-71.1294 62.0862 -71.0139 57.875 -70.1273 54.0854L219.395 165.28ZM-76.7254 64.0596C-84.3444 41.2875 -61.7008 30.3946 -61.7008 30.3946C-61.7008 30.3946 -65.252 28.997 -68.2654 28.0944C-91.5107 36.9942 -84.2913 61.1255 -84.2913 61.1255L-80.3547 62.734L-76.7254 64.0596Z" fill="#2A60A0"/>
</g>
<path d="M984.875 -23.1551C940.39 -27.435 909.551 4.00731 906.572 7.15363C873.737 41.7422 864.739 103.556 898.06 141.26C934.581 182.576 996.619 166.314 1000.18 165.319C1031.89 156.472 1070.73 129.808 1076.82 87.1258C1084.43 33.7651 1037.06 -18.1443 984.875 -23.1551ZM1036.19 97.5499C1023.02 94.3083 1016.11 74.7735 1023.9 63.311C1028.38 56.7323 1037.32 53.3635 1045.67 55.1857C1055.68 57.3786 1062.73 66.6163 1062.7 76.1612C1062.64 89.8807 1047.93 100.432 1036.19 97.5499Z" fill="#FFFBEE"/>
<path d="M913.181 85.386C907.09 91.7741 903.145 102.717 906.848 107.919C909.247 111.277 912.739 109.307 918.241 113.449C924.448 118.121 922.87 122.793 929.003 127.263C929.897 127.92 935.389 131.925 941.701 130.855C947.318 129.912 950.422 125.473 956.45 116.85C962.52 108.163 965.56 103.819 965.16 98.0244C964.582 89.6129 957.628 84.0829 956.018 82.8117C944.162 73.3832 923.743 74.3154 913.181 85.386Z" fill="#2E7669"/>
<path d="M976.048 91.1352C970.273 90.1753 964.541 95.6947 963.81 96.4042C961.278 98.8456 961.988 99.6177 959.858 101.36C954.539 105.711 948.531 102.184 945.925 105.554C943.837 108.257 945.204 113.787 948.192 116.604C951.53 119.744 954.836 117.595 957.919 120.422C962.051 124.21 958.036 129.886 961.786 134.518C966.131 139.881 976.355 138.274 978.421 137.951C985.383 136.855 989.843 133.193 993.17 130.47C998.405 126.182 1005.29 120.537 1004.73 112.806C1004.39 108.163 1001.41 103.196 997.144 101.245C993.732 99.6803 992.577 101.464 988.424 100.192C981.473 98.0423 981.611 92.0638 976.048 91.1352Z" fill="#2A60A0"/>
<path d="M927.753 27.1089C921.258 29.2874 920.008 27.6561 916.31 29.8766C908.491 34.5808 903.935 48.0514 908.893 56.6073C911.659 61.3852 917.232 63.069 928.378 66.4366C940.002 69.9411 945.808 71.6986 951.265 69.2044C961.892 64.3318 963.683 49.0616 963.948 46.778C964.191 44.6837 964.626 40.6637 963.333 35.7174C961.15 27.3615 954.168 16.7955 946.317 16.6692C940.023 16.564 939.239 23.2571 927.753 27.1089Z" fill="#FDEBA3"/>
<path d="M977.287 46.0975C977.128 47.5699 974.956 50.3028 970.602 55.7263C963.492 64.5816 960.928 66.3188 961.246 69.6344C961.553 72.9287 964.552 76.1594 967.667 76.8586C971.693 77.759 973.706 73.8927 977.022 74.9836C980.561 76.1488 979.777 81.0215 983.973 83.5425C987.692 85.767 992.28 84.3264 993.064 84.0722C999.824 81.9431 1004.89 73.649 1004.56 66.1599C1004.1 55.525 993.032 52.612 994.134 43.7036C994.622 39.7207 996.232 39.6889 1000.82 30.0708C1005.34 20.5904 1008.86 13.2073 1006.11 9.75408C1003.98 7.08474 998.627 7.88978 987.915 9.49986C981.886 10.4108 978.803 10.8981 975.677 12.6882C973.971 13.6628 964.965 18.9379 965.251 26.0562C965.611 35.1976 978.114 38.2166 977.287 46.0975Z" fill="#D66364"/>
<path d="M922.091 45.6422C917.763 43.7565 912.733 45.3244 908.771 47.422C904.779 49.5407 901.278 52.74 899.015 56.702C895.011 63.7045 896.154 74.4995 904.642 77.4657C908.824 78.9277 913.529 77.7836 917.176 75.4318C918.727 74.436 920.215 72.7728 918.685 71.0142C917.187 69.2874 914.808 69.8701 912.953 70.6116C908.866 72.2431 906.529 75.7178 906.392 80.146C906.267 84.267 908.132 88.3138 911.203 90.994C919.262 98.0282 931.911 96.2273 940.158 90.5702C940.955 90.0194 940.672 89.6062 939.802 89.7121C938.607 89.8498 937.36 90.4643 936.375 91.1423C931.313 94.6065 923.38 93.5576 918.339 90.602C913.215 87.5934 909.851 81.1524 911.727 75.1987C911.947 74.4783 912.251 73.7898 912.628 73.1329C912.838 72.7833 913.058 72.455 913.32 72.1371C913.403 72.0417 913.487 71.9465 913.582 71.8617C914.221 71.3002 913.802 71.4167 912.303 72.2219C912.376 72.2748 912.879 72.3596 912.942 72.3808C913.288 72.5185 913.592 72.7516 913.833 73.027C914.305 73.5567 914.703 74.436 914.368 75.1352C914.189 75.5059 914.148 75.4106 913.938 75.6331C913.781 75.792 914.41 75.4953 914.074 75.5907C913.445 75.7708 912.775 75.792 912.125 75.7708C910.616 75.7178 909.138 75.2941 907.797 74.616C902.096 71.724 900.409 64.266 902.274 58.5029C903.406 55.0177 905.627 51.9137 908.405 49.5725C911.129 47.2736 914.148 46.4367 917.522 47.9093C918.381 48.28 919.922 47.4749 920.676 47.0935C920.938 46.9876 922.793 45.9494 922.091 45.6422Z" fill="#2A60A0"/>
<path d="M1011.1 32.1123C1009.87 37.2611 1008.38 42.8124 1004.2 46.3615C1000.53 49.4867 995.858 51.7433 993.465 56.1611C992.279 58.3646 991.502 61.2145 993.308 63.312C995.228 65.5474 998.335 65.7276 1001.03 65.1555C1006.72 63.9477 1011.54 60.0809 1015.2 55.6737C1018.82 51.309 1022.65 46.1072 1024.03 40.4923C1025.26 35.4601 1023.69 27.6628 1017 28.7752C1010.7 29.8134 1008.14 36.4241 1005.84 41.5835C1004.7 44.1579 1003.57 46.7428 1002.1 49.1583C1000.71 51.4572 998.934 53.2159 997.139 55.1863C996.142 56.2881 995.197 57.4747 994.641 58.8837C994.2 60.0067 993.885 61.7971 994.809 62.7717C996.918 65.0071 1001.55 61.7653 1003.35 60.4199C1008.08 56.8814 1011.23 51.3406 1011.39 45.3656C1011.43 43.8507 1008.89 44.7511 1008.34 45.0372C1004.83 46.8064 1001.77 49.4549 999.532 52.6967C998.472 54.2329 997.58 55.9386 996.95 57.7078C996.436 59.1274 995.428 61.6382 996.509 62.9837C997.842 64.6363 1000.63 63.4286 1002.02 62.5176C1003.73 61.3945 1005.15 59.6889 1006.34 58.0256C1008.71 54.7414 1010.12 50.8957 1010.56 46.8805C1010.73 45.3762 1007.97 46.2767 1007.51 46.5521C1004.22 48.5015 1001.36 51.15 999.385 54.4765C998.325 56.2563 994.788 62.6553 998.388 63.5028C1000.28 63.9477 1002.3 62.74 1003.77 61.6912C1005.38 60.5364 1006.77 59.1062 1007.97 57.5276C1010.14 54.646 1011.39 51.15 1011.58 47.548C1011.61 46.9123 1010.86 46.6369 1010.35 46.6793C1007.13 46.9547 1004.23 48.565 1002.16 51.0652C1000.31 53.29 998.818 56.5212 998.451 59.424C998.325 60.3987 998.44 61.6912 999.322 62.3056C1000.68 63.2379 1002.65 62.4328 1003.84 61.6064C1006.25 59.9325 1008.32 57.4217 1009.95 54.9957C1011.61 52.5485 1012.91 49.8046 1013.75 46.9547C1014.1 45.7787 1014.72 44.1154 1013.23 43.5328C1011.79 42.9713 1009.9 43.9777 1008.81 44.8571C1006.22 46.9441 1004 49.7939 1002.1 52.5167C1001.22 53.7773 1000.4 55.0804 999.668 56.4259C999.007 57.6337 998.115 59.2545 998.944 60.6212C1001.01 64.0537 1006.22 59.4876 1007.86 57.6866C1010.14 55.1758 1011.59 52.1565 1012.12 48.7981C1012.4 46.9971 1008.92 48.5333 1008.47 48.8511C1006.4 50.3131 1004.56 52.0823 1003 54.0846C1001.78 55.6525 1000.07 57.8667 1000 59.9537C999.91 63.079 1003.8 62.1468 1005.53 61.2992C1007.78 60.1868 1009.64 58.4599 1011.18 56.4894C1014.35 52.4637 1016.68 47.5374 1018.61 42.8018C1019.51 40.5982 1020.59 38.1298 1020.43 35.6931C1020.37 34.6973 1020.1 33.5637 1019.44 32.7903C1018.56 31.7521 1017.14 31.8898 1015.98 32.3454C1013.29 33.3942 1011.54 36.4771 1010.3 38.9456C1009.07 41.4033 1008.34 44.0307 1008.03 46.7746C1007.94 47.5585 1009.07 47.6646 1009.56 47.6116C1010.49 47.5162 1011.54 47.0077 1012.17 46.3085C1015.39 42.7171 1017.12 38.2993 1018.71 33.7968C1017.15 34.1146 1015.61 34.4218 1014.06 34.7397C1012.71 38.882 1011.37 43.0243 1010.03 47.1666C1009.7 48.1731 1010.66 48.5121 1011.47 48.4167C1012.52 48.3002 1013.91 47.6328 1014.45 46.658C1016.37 43.1832 1018.29 39.6977 1020.21 36.2228C1018.71 36.5301 1017.22 36.8373 1015.72 37.1445C1015.93 42.7171 1013.76 48.4908 1009.43 52.0823C1008.81 52.5908 1007.72 53.7137 1008.63 54.466C1009.47 55.1546 1011.27 54.3176 1011.93 53.7667C1017.39 49.2431 1020.79 42.5687 1020.51 35.3647C1020.43 33.2247 1016.5 35.4071 1016.02 36.2864C1014.1 39.7613 1012.18 43.2467 1010.26 46.7216C1011.73 46.5521 1013.21 46.3933 1014.68 46.2237C1016.02 42.0814 1017.36 37.9391 1018.71 33.7968C1019.08 32.6526 1017.83 32.409 1016.98 32.5785C1015.86 32.7903 1014.46 33.6061 1014.06 34.7503C1012.74 38.5112 1011.4 42.4734 1008.71 45.4821C1010.08 45.3233 1011.46 45.1643 1012.84 45.0054C1013.08 42.8548 1013.68 40.7571 1014.58 38.7972C1014.99 37.9073 1015.5 37.0492 1016.04 36.244C1016.34 35.8097 1016.69 35.4177 1016.98 34.9727C1017.76 34.1782 1017.11 34.3795 1015.03 35.5872C1015.17 35.7991 1015.29 36.011 1015.37 36.244C1016.13 38.1828 1015.28 40.3758 1014.58 42.2085C1013.73 44.4651 1012.77 46.6793 1011.69 48.8298C1009.9 52.3895 1007.95 56.1611 1004.76 58.6083C1004.22 58.8414 1004.28 58.8837 1004.93 58.7354C1004.82 58.6294 1004.78 58.5129 1004.8 58.3647C1004.9 57.9938 1004.94 57.6548 1005.11 57.2947C1005.53 56.4047 1006.1 55.5465 1006.68 54.752C1007.87 53.1099 1009.32 51.7327 1010.97 50.578C1009.75 50.5991 1008.54 50.6097 1007.33 50.6309C1007.03 52.6014 1006.24 54.4872 1005.06 56.0975C1004.51 56.8603 1003.86 57.5489 1003.11 58.1209C1003.01 58.2057 1002.89 58.2799 1002.79 58.3647C1002.1 58.7884 1002.39 58.7566 1003.63 58.2693C1003.5 58.0998 1003.44 57.9091 1003.43 57.6972C1003.44 57.4217 1003.5 57.1675 1003.63 56.9238C1004.4 54.9003 1005.98 52.9086 1007.27 51.2029C1007.9 50.3767 1008.55 49.5821 1009.24 48.8087C1009.65 48.3531 1010.07 47.8976 1010.5 47.4633C1010.71 47.2408 1010.93 47.0289 1011.15 46.8064C1011.83 46.2237 1011.53 46.2767 1010.24 46.9653C1009.94 46.8911 1009.65 46.817 1009.36 46.7534C1009.98 47.0183 1007.28 52.6544 1006.91 53.3112C1005.65 55.5254 1004.1 57.5489 1002.23 59.2757C1002.12 59.3711 1001.87 59.5406 1001.8 59.6571C1001.3 60.4622 1003.63 58.7354 1003.47 59.2863C1003.51 59.138 1003.24 58.3647 1003.25 58.1422C1003.31 57.0191 1003.86 55.7796 1004.26 54.7414C1004.87 53.1205 1006.03 50.419 1008.05 50.239C1007.65 49.9529 1007.24 49.6668 1006.83 49.3702C1006.7 51.7539 1006.04 54.1058 1004.81 56.1611C1004.23 57.1251 1003.56 58.015 1002.78 58.8096C1002.42 59.1698 1002.05 59.4981 1001.64 59.8055C1001.67 59.7737 1001.02 60.2822 1001 60.2609C1000.97 60.2398 1001.73 60.0914 1001.72 60.102C1001.74 60.0703 1001.66 59.636 1001.66 59.5617C1001.67 59.2439 1001.82 58.8943 1001.9 58.5871C1002.06 58.0044 1002.25 57.4429 1002.46 56.8814C1002.88 55.7903 1003.4 54.7626 1004.05 53.7773C1005.29 51.8598 1006.91 50.1965 1008.87 49.0311C1007.86 48.9252 1006.84 48.8087 1005.82 48.7028C1005.51 51.4572 1004.65 54.1693 1003.24 56.5424C1002.59 57.6442 1001.84 58.6824 1000.98 59.6147C1000.72 59.9007 999.647 60.6424 1000.59 60.3881C1001.19 60.2186 1000.93 60.314 1000.9 59.7524C1000.88 59.4664 1000.98 59.1698 1001.04 58.8943C1002.11 54.0316 1005.29 49.7516 1009.72 47.5268C1008.71 47.4208 1007.69 47.3043 1006.67 47.1984C1006.56 51.1818 1004.94 55.1016 1002.04 57.8455C1001.44 58.407 1000.79 58.9261 1000.09 59.3499C999.899 59.4664 999.227 59.9855 999.028 59.9325C998.787 59.8584 999.217 60.1445 999.049 59.9325C999.123 60.0279 999.091 59.2757 999.091 59.1698C999.133 57.2416 1000.94 55.7796 1002.17 54.5295C1005.46 51.1711 1007.63 47.1136 1009.57 42.8548C1010.51 40.7784 1011.4 38.6701 1012.42 36.6148C1013.04 35.3435 1014.05 32.6844 1015.57 32.2712C1017.73 31.678 1019.17 34.8562 1019.54 36.4665C1020.07 38.8078 1019.64 41.2233 1018.83 43.4374C1017.27 47.7069 1014.43 51.7644 1011.52 55.2181C1009 58.2057 1005.68 61.4369 1001.63 61.9455C999.637 62.1997 997.202 61.1402 997.065 58.8519C996.96 57.0404 998.083 55.2499 999.28 53.9893C1002.31 50.811 1006.46 48.957 1009.38 45.6198C1012.94 41.5623 1014.55 36.4135 1015.79 31.233C1016.33 28.7328 1011.5 30.3961 1011.1 32.1123Z" fill="#2A60A0"/>
<path d="M1019.73 101.661C1017.43 103.303 1017.33 106.311 1016.94 108.865C1016.51 111.672 1015.83 114.437 1014.57 116.99C1013.25 119.649 1011.37 121.673 1008.92 123.304C1006.44 124.967 1003.7 126.249 1001.49 128.294C999.486 130.148 997.748 132.712 997.758 135.54C997.779 138.93 1000.4 141.431 1003.73 141.642C1006.91 141.844 1009.79 140.032 1012.46 138.549C1015.49 136.854 1018.47 135.064 1021.4 133.188C1023.9 131.589 1026.56 130.021 1028.47 127.701C1030.42 125.328 1031.34 122.34 1031.67 119.31C1032.28 113.748 1031.71 105.792 1026.02 102.953C1023.09 101.502 1019.79 102.36 1018.01 105.104C1016.41 107.562 1016.77 110.666 1016.65 113.452C1016.55 116.1 1016.22 118.865 1014.81 121.164C1013.39 123.474 1010.91 124.364 1008.53 125.317C1005.44 126.557 1002.79 128.22 1000.84 130.995C999.191 133.358 998.759 136.843 1001.55 138.591C1005.14 140.837 1008.5 137.161 1011.11 134.968C1012.55 133.761 1013.99 132.521 1015.31 131.186C1016.55 129.957 1017.52 128.591 1017.16 126.758C1016.82 125.052 1014.7 124.056 1013.15 124.597C1008.92 126.059 1005.05 128.411 1001.78 131.472C1001.27 131.96 1001.12 132.807 1001.51 133.432C1003.62 136.843 1007.34 136.462 1010.39 134.661C1013.34 132.913 1016.31 131.091 1018.79 128.697C1021.36 126.228 1023.25 123.272 1024.12 119.776C1025.07 115.963 1024.71 111.926 1024.38 108.049C1023.48 108.621 1022.58 109.204 1021.68 109.776C1021.11 109.574 1021.42 109.532 1021.47 109.754C1021.55 110.178 1021.67 110.231 1021.71 110.697C1021.78 111.492 1021.63 112.318 1021.51 113.102C1021.19 115.094 1020.85 117.075 1020.54 119.067C1020.13 121.588 1019.61 125.794 1016.19 125.836C1016.84 127.171 1017.48 128.516 1018.14 129.851C1024.2 126.218 1025.34 119.289 1025.92 112.774C1024.28 112.445 1022.63 112.117 1020.99 111.789C1021.78 115.348 1021.64 118.887 1020.64 122.393C1022.3 122.902 1023.95 123.4 1025.59 123.908C1026.02 119.639 1026.9 115.433 1028.33 111.386C1026.74 110.888 1025.15 110.401 1023.55 109.903C1024.15 113.611 1023.08 117.234 1020.76 120.147C1019.96 121.154 1021.38 122.647 1022.18 123.082C1023.3 123.686 1024.58 123.675 1025.4 122.647C1028.14 119.194 1029.17 114.691 1028.47 110.358C1028.3 109.31 1027.22 108.462 1026.26 108.176C1025.5 107.943 1024.02 107.932 1023.69 108.886C1022.14 113.261 1021.1 117.764 1020.63 122.393C1020.4 124.809 1024.83 126.599 1025.58 123.908C1026.67 120.105 1026.74 116.1 1025.89 112.244C1025.63 111.068 1024.5 110.199 1023.36 109.988C1022.43 109.818 1021.07 110.062 1020.96 111.248C1020.5 116.365 1019.94 123.039 1015.02 125.985C1012.88 127.266 1015.03 130.021 1016.97 130C1019.38 129.978 1021.66 129.237 1023.22 127.309C1024.89 125.275 1025.15 122.563 1025.56 120.052C1025.99 117.393 1026.77 114.575 1026.66 111.863C1026.54 109.013 1024.79 106.809 1022.16 105.845C1020.81 105.358 1019.33 106.036 1019.45 107.572C1019.93 113.303 1020.13 119.3 1016.16 123.919C1014.48 125.868 1012.43 127.457 1010.3 128.887C1009.2 129.629 1008.07 130.317 1006.92 130.985C1006.48 131.239 1006.04 131.504 1005.55 131.684C1005.37 131.748 1005.16 131.779 1004.99 131.854C1004.2 132.203 1004.58 130.455 1006.04 132.796C1005.94 133.453 1005.85 134.1 1005.76 134.756C1008.8 131.896 1012.29 129.788 1016.23 128.432C1014.89 127.711 1013.56 126.991 1012.22 126.271C1012.39 127.139 1011.12 128.019 1010.59 128.527C1009.51 129.534 1008.41 130.519 1007.28 131.472C1006.28 132.32 1005.26 133.146 1004.22 133.941C1003.84 134.237 1002.96 134.65 1002.72 135.074C1001.9 136.462 1004.87 135.477 1004.5 136.324C1004.4 136.526 1004.46 135.498 1004.45 135.731C1004.52 133.877 1006.53 132.065 1007.89 131.048C1009.68 129.714 1011.88 129.12 1013.89 128.22C1016.05 127.256 1017.91 125.942 1019.24 123.951C1020.47 122.118 1021.07 119.851 1021.36 117.689C1021.68 115.433 1021.53 113.166 1021.69 110.909C1021.77 109.807 1021.93 108.684 1022.53 107.731C1022.85 107.233 1023.75 106.11 1024.48 106.386C1024.79 106.502 1025.21 107.244 1025.37 107.509C1026.04 108.61 1026.36 109.913 1026.58 111.164C1027.01 113.6 1026.95 116.164 1026.59 118.601C1026.27 120.836 1025.54 123.103 1024.04 124.83C1022.38 126.726 1020.1 128.072 1018.01 129.428C1015.74 130.9 1013.42 132.32 1011.07 133.665C1008.86 134.936 1006.49 136.578 1004.01 137.246C1003.7 137.331 1002.77 137.235 1002.54 137.394C1002.52 137.384 1002.51 137.384 1002.49 137.373C1002.24 137.278 1002.4 137.394 1002.95 137.701C1002.92 137.733 1002.87 137.447 1002.83 137.543C1002.92 137.257 1002.69 136.642 1002.72 136.292C1002.77 135.742 1002.91 135.233 1003.13 134.735C1004.06 132.595 1005.86 131.048 1007.75 129.777C1010.05 128.23 1012.58 127.033 1014.71 125.243C1016.76 123.537 1018.36 121.302 1019.48 118.887C1020.59 116.45 1021.3 113.801 1021.76 111.164C1022.11 109.161 1021.9 106.237 1023.73 104.924C1024.79 104.161 1023.96 102.593 1023.21 101.978C1022.23 101.216 1020.79 100.887 1019.73 101.661Z" fill="#FDEBA3"/>
<g clip-path="url(#clip8_321_2494)">
<path d="M53.7476 194.931C48.3607 195.217 43.6105 198.536 41.4738 203.596C38.188 211.374 34.8036 222.898 35.2984 237.063C35.7375 249.694 39.1022 260.035 42.3761 267.316C44.7131 272.514 49.774 275.887 55.3198 276.057C90.5018 277.142 125.684 278.226 160.855 279.321C167.689 279.536 173.642 274.821 175.165 268.009C177.409 257.988 179.103 245.294 178.47 230.629C177.969 219.121 176.142 208.985 173.949 200.571C172.153 193.674 165.832 188.998 158.932 189.365C123.87 191.213 88.809 193.072 53.7476 194.931Z" fill="#D66364"/>
<path d="M152.652 191.153C152.625 196.407 152.598 201.651 152.581 206.905C152.486 226.068 152.401 245.222 152.317 264.385C152.291 268.976 152.274 273.577 152.248 278.168L65.9801 275.766C65.8958 270.618 65.8116 265.48 65.7273 260.332C65.4272 242.655 65.1364 224.978 64.855 207.292C64.7854 203.294 64.7158 199.306 64.6555 195.309C93.9847 193.924 123.323 192.539 152.652 191.153Z" fill="#2A60A0"/>
<path d="M153.355 208.677C153.025 227.148 152.705 245.609 152.385 264.08C123.47 263.135 94.5366 262.18 65.6218 261.235C65.5377 244.202 65.463 227.169 65.3978 210.126C94.7167 209.643 124.036 209.151 153.355 208.677Z" fill="#97CFC0"/>
</g>
<g clip-path="url(#clip9_321_2494)">
<path d="M196.311 631.18C180.409 631.493 164.506 631.807 148.603 632.112C147.24 540.956 145.885 449.791 144.522 358.627C162.918 358.707 181.314 358.789 199.711 358.87C198.572 449.64 197.442 540.41 196.311 631.18Z" fill="#97CFC0"/>
</g>
</g>
<defs>
<clipPath id="clip0_321_2494">
<rect width="1200" height="674.671" fill="white"/>
</clipPath>
<clipPath id="clip1_321_2494">
<rect width="604.58" height="604.58" fill="white" transform="translate(297.71 35.043)"/>
</clipPath>
<clipPath id="clip2_321_2494">
<rect width="82.6977" height="101.893" fill="white" transform="translate(835.175 543.805) rotate(-1.31455)"/>
</clipPath>
<clipPath id="clip3_321_2494">
<rect width="99.9327" height="114.936" fill="white" transform="translate(257.499 10.2964) rotate(12.3262)"/>
</clipPath>
<clipPath id="clip4_321_2494">
<rect width="244.562" height="277.696" fill="white" transform="translate(954.409 312.073) rotate(31.3611)"/>
</clipPath>
<clipPath id="clip5_321_2494">
<rect width="189.773" height="213.011" fill="white" transform="translate(1037.65 194.117)"/>
</clipPath>
<clipPath id="clip6_321_2494">
<rect width="230.383" height="272.975" fill="white" transform="translate(90.1299 298.613) rotate(-3.81566)"/>
</clipPath>
<clipPath id="clip7_321_2494">
<rect width="364.269" height="196.378" fill="white" transform="translate(-109.305 24.9141) rotate(-6.00482)"/>
</clipPath>
<clipPath id="clip8_321_2494">
<rect width="148.262" height="115.928" fill="white" transform="translate(21.6948 201.191) rotate(-16.1565)"/>
</clipPath>
<clipPath id="clip9_321_2494">
<rect width="229.338" height="229.338" fill="white" transform="translate(9.82812 493.32) rotate(-45)"/>
</clipPath>
</defs>
</svg>
