<svg width="192" height="224" viewBox="0 0 192 224" fill="none" xmlns="http://www.w3.org/2000/svg">
<g clip-path="url(#clip0_321_2737)">
<path d="M182.804 109.749H187.199V120.169H179.285H178.613V223.07H140.401H140.383H116.951H112.935H75.0446H70.9109H47.4607H9.23097V120.169H8.55892H0.644043V109.749H4.99921L27.7653 64.3489V34.4153H28.6868L60.1095 44.3984L28.6871 54.3815V64.1905L51.5326 109.749H56.0473V120.169H50.4583V124.691H58.3731V120.169H66.2877V124.691H74.2026V120.169H74.8746V85.1782H74.2026H66.2877V74.7587H70.4839L93.4624 28.9355V0.5H94.3838L125.806 10.4831L94.3841 20.4663V28.6711L117.495 74.7584H121.691V85.1779H113.776H113.105V120.169H113.776V124.691H121.691V120.169H129.606V124.691H137.521V120.169H131.796V109.749H136.191L159.009 64.2456V34.4153H159.93L191.353 44.3984L159.93 54.3815V64.1347L182.804 109.749Z" fill="#FDEBA3"/>
<path d="M94.384 28.731L117.494 74.9161H113.776V79.4482H105.861V74.9161H97.9466V79.4482H90.032V74.9161H82.1171V79.4482H74.2022V74.9161H70.4835L93.462 28.9956V0.5H94.3834V20.5086L94.384 28.731ZM42.5436 130.864H47.4603V223.543H9.23096V120.423H16.4735H24.3884H32.303H40.2178H42.5436V130.864ZM37.3195 178.996C37.3195 174.044 33.3018 170.029 28.3458 170.029C23.3897 170.029 19.372 174.044 19.372 178.996V194.146H37.3195V178.996ZM37.3195 138.923C37.3195 133.971 33.3018 129.957 28.3458 129.957C23.3897 129.957 19.372 133.971 19.372 138.923V154.074H37.3195V138.923ZM178.612 120.423V223.542H140.401H140.383V130.864H145.435V120.423H147.625H155.54H163.456H171.37H178.612ZM168.471 179.716C168.471 174.764 164.454 170.749 159.498 170.749C154.541 170.749 150.524 174.764 150.524 179.716V194.866H168.471V179.716ZM168.471 139.642C168.471 134.691 164.454 130.676 159.498 130.676C154.541 130.676 150.524 134.691 150.524 139.642V154.793H168.471V139.642ZM93.9894 168.557C81.2964 168.557 70.9696 178.875 70.9696 191.557L70.9105 223.542H75.0441V191.557C75.0441 181.103 83.5261 172.627 93.9891 172.627C104.452 172.627 112.934 181.103 112.934 191.557V223.542H116.949L117.009 191.557C117.009 178.875 106.682 168.557 93.9894 168.557Z" fill="#97CFC0"/>
<path d="M125.807 10.4789L94.3842 20.4576V0.5L125.807 10.4789ZM48.133 114.222V109.701H51.5331L28.6873 64.1629V54.3582V34.4006H27.7659V64.3213L4.99951 109.701H8.55894V114.222H16.4738V109.701H24.3887V114.222H32.3032V109.701H40.2181V114.222H48.133ZM159.931 64.1071V54.3582V34.4006H159.009V64.2183L136.191 109.702H139.711V114.222H147.625V109.702H155.541V114.222H163.455V109.702H171.37V114.222H179.285V109.702H182.805L159.931 64.1071ZM93.9896 172.188C83.5266 172.188 75.0447 180.642 75.0447 191.07V222.973H112.934V191.07C112.934 180.642 104.453 172.188 93.9896 172.188ZM137.521 120.117V124.637H129.606V120.117H121.691V124.637H113.776V120.117H113.104H105.862V124.637H97.9468V120.117H90.032V124.637H82.117V120.117H74.8746H74.2025V124.637H66.2877V120.117H58.373V124.637H50.4582V120.117H48.1324H42.5433V130.531H47.4601H50.4579H58.3727H66.2874H74.2022H82.117H90.032H97.9468H105.862H113.776H121.692H129.606H137.522H140.383H145.436V120.117H139.711H137.521ZM74.8752 85.1415H82.1176H90.0325H97.9471H105.862H113.104H113.776H121.691V74.7266H117.494H113.776V79.247H105.862V74.7266H97.9468V79.247H90.0322V74.7266H82.1173V79.247H74.2025V74.7266H70.4838H66.2877V85.1415H74.2025H74.8752Z" fill="#D66364"/>
<path d="M167.838 179.776V194.931H149.967V179.776C149.967 174.822 153.968 170.806 158.902 170.806C163.837 170.806 167.838 174.822 167.838 179.776ZM158.902 130.721C153.968 130.721 149.967 134.737 149.967 139.69V154.846H167.838V139.69C167.838 134.737 163.837 130.721 158.902 130.721ZM28.3077 170.086C23.3727 170.086 19.3721 174.102 19.3721 179.055V194.21H37.2433V179.055C37.2433 174.102 33.2427 170.086 28.3077 170.086ZM28.3077 130.001C23.3727 130.001 19.3721 134.017 19.3721 138.971V154.126H37.2433V138.971C37.2433 134.017 33.2427 130.001 28.3077 130.001ZM93.6137 91.1172C88.6787 91.1172 84.6781 95.1329 84.6781 100.087V115.242H102.549V100.087C102.549 95.1329 98.549 91.1172 93.6137 91.1172ZM59.4413 144.542C57.4809 144.542 55.8916 146.137 55.8916 148.105V154.125H62.9913V148.105C62.9913 146.137 61.4021 144.542 59.4413 144.542ZM76.5233 144.542C74.5629 144.542 72.9736 146.137 72.9736 148.105V154.125H80.0734V148.105C80.0731 146.137 78.4838 144.542 76.5233 144.542ZM93.6052 144.542C91.6447 144.542 90.0554 146.137 90.0554 148.105V154.125H97.1552V148.105C97.1549 146.137 95.5656 144.542 93.6052 144.542ZM110.687 144.542C108.727 144.542 107.137 146.137 107.137 148.105V154.125H114.237V148.105C114.237 146.137 112.647 144.542 110.687 144.542ZM127.768 144.542C125.808 144.542 124.219 146.137 124.219 148.105V154.125H131.319V148.105C131.319 146.137 129.729 144.542 127.768 144.542Z" fill="#2A60A0"/>
</g>
<defs>
<clipPath id="clip0_321_2737">
<rect width="190.712" height="223.119" fill="white" transform="translate(0.644043 0.503906)"/>
</clipPath>
</defs>
</svg>
